<svg xmlns="http://www.w3.org/2000/svg" width="27" height="17" viewBox="0 0 27 17">
  <g id="Icon_view" transform="translate(-0.086 0.391)">
    <path id="Shape" d="M13.5,17A14.763,14.763,0,0,1,0,8.5,14.762,14.762,0,0,1,13.5,0,14.762,14.762,0,0,1,27,8.5,14.762,14.762,0,0,1,13.5,17Zm0-14.167A5.847,5.847,0,0,0,7.5,8.5a5.847,5.847,0,0,0,6,5.666,5.847,5.847,0,0,0,6-5.666c0-.125,0-.25-.012-.372A3.139,3.139,0,0,1,18,8.5a2.924,2.924,0,0,1-3-2.834,2.762,2.762,0,0,1,1.168-2.243A6.226,6.226,0,0,0,13.5,2.833Z" transform="translate(0.086 -0.391)" fill="#33498b"/>
    <path id="Path" d="M6,3A3,3,0,1,1,3,0,3,3,0,0,1,6,3Z" transform="translate(11.087 5.609)" fill="#33498b"/>
  </g>
</svg>
