<svg xmlns="http://www.w3.org/2000/svg" xmlns:xlink="http://www.w3.org/1999/xlink" width="19.703" height="19.299" viewBox="0 0 19.703 19.299">
  <defs>
    <linearGradient id="linear-gradient" x1="0.5" x2="0.5" y2="1" gradientUnits="objectBoundingBox">
      <stop offset="0" stop-color="#33498b"/>
      <stop offset="1" stop-color="#1a2546"/>
    </linearGradient>
  </defs>
  <g id="Group_15305" data-name="Group 15305" transform="translate(0 -1)">
    <path id="Path_30476" data-name="Path 30476" d="M75.289,272.29H73.408a.3.3,0,0,0-.3.3v2.672H58.378v-2.672a.3.3,0,0,0-.3-.3H56.193a.3.3,0,0,0-.3.3v4.862a.3.3,0,0,0,.3.306h19.1a.3.3,0,0,0,.3-.306v-4.862A.3.3,0,0,0,75.289,272.29Z" transform="translate(-55.89 -257.463)" fill="url(#linear-gradient)"/>
    <path id="Path_30477" data-name="Path 30477" d="M77.615,226.8h5.9a.356.356,0,0,0,.355-.355v-1.6a.356.356,0,0,0-.355-.355h-5.9a.356.356,0,0,0-.355.355v1.6A.356.356,0,0,0,77.615,226.8Z" transform="translate(-70.713 -223.49)" fill="url(#linear-gradient)"/>
    <path id="Path_30478" data-name="Path 30478" d="M66.949,242.267l3.416,4a.905.905,0,0,0,1.225,0l3.416-4,3.413-4c.273-.319-.067-.717-.613-.717H74.225v-3.306a.3.3,0,0,0-.3-.3H67.929a.3.3,0,0,0-.3.3v3.306h-3.48c-.545,0-.885.4-.613.717Z" transform="translate(-61.124 -230.862)" fill="url(#linear-gradient)"/>
  </g>
</svg>
