<svg xmlns="http://www.w3.org/2000/svg" xmlns:xlink="http://www.w3.org/1999/xlink" width="114" height="91" viewBox="0 0 114 91">
  <defs>
    <filter id="Rectangle_4256" x="0" y="0" width="114" height="91" filterUnits="userSpaceOnUse">
      <feOffset dy="3" input="SourceAlpha"/>
      <feGaussianBlur stdDeviation="3" result="blur"/>
      <feFlood flood-opacity="0.161"/>
      <feComposite operator="in" in2="blur"/>
      <feComposite in="SourceGraphic"/>
    </filter>
  </defs>
  <g id="Group_15464" data-name="Group 15464" transform="translate(-7293 -634)">
    <g id="Group_15460" data-name="Group 15460" transform="translate(3175 -1349)">
      <g transform="matrix(1, 0, 0, 1, 4118, 1983)" filter="url(#Rectangle_4256)">
        <rect id="Rectangle_4256-2" data-name="Rectangle 4256" width="96" height="73" rx="36.5" transform="translate(9 6)" fill="#fff"/>
      </g>
    </g>
    <g id="Group_15463" data-name="Group 15463" transform="translate(6727.359 1564.548) rotate(-90)">
      <path id="Path_6066" data-name="Path 6066" d="M888.833,623.519a.7.7,0,0,0,.751-.1l7.445-6.285a.706.706,0,0,0,0-1.078l-7.445-6.284a.7.7,0,0,0-1.159.538v1.966H875.669a.7.7,0,0,0-.7.7v7.227a.7.7,0,0,0,.7.7h12.756v1.967A.7.7,0,0,0,888.833,623.519ZM876.374,619.5v-5.818H889.13a.705.705,0,0,0,.706-.7v-1.153l5.646,4.766-5.646,4.767v-1.153a.705.705,0,0,0-.706-.7Z" fill="#33498b"/>
      <path id="Path_6067" data-name="Path 6067" d="M875.214,628.247l7.444,6.284a.7.7,0,0,0,1.159-.538v-1.965h12.757a.705.705,0,0,0,.7-.706v-7.227a.7.7,0,0,0-.7-.7H883.817v-1.966a.7.7,0,0,0-1.159-.538l-7.444,6.284a.706.706,0,0,0,0,1.078Zm7.195-5.305v1.153a.7.7,0,0,0,.7.7h12.756v5.818H883.113a.7.7,0,0,0-.7.7v1.153l-5.647-4.767Z" transform="translate(0 0.898)" fill="#33498b"/>
    </g>
  </g>
</svg>
