<svg xmlns="http://www.w3.org/2000/svg" xmlns:xlink="http://www.w3.org/1999/xlink" width="114" height="91" viewBox="0 0 114 91">
  <defs>
    <filter id="Rectangle_4256" x="0" y="0" width="114" height="91" filterUnits="userSpaceOnUse">
      <feOffset dy="3" input="SourceAlpha"/>
      <feGaussianBlur stdDeviation="3" result="blur"/>
      <feFlood flood-opacity="0.161"/>
      <feComposite operator="in" in2="blur"/>
      <feComposite in="SourceGraphic"/>
    </filter>
  </defs>
  <g id="Group_15451" data-name="Group 15451" transform="translate(-735 -174)">
    <g id="Group_15350" data-name="Group 15350" transform="translate(-3383 -1809)">
      <g transform="matrix(1, 0, 0, 1, 4118, 1983)" filter="url(#Rectangle_4256)">
        <rect id="Rectangle_4256-2" data-name="Rectangle 4256" width="96" height="73" rx="36.5" transform="translate(9 6)" fill="#fff"/>
      </g>
    </g>
    <g id="Group_15353" data-name="Group 15353" transform="translate(115 25.668)">
      <path id="Path_31045" data-name="Path 31045" d="M410.081,600.538H376.438a8.408,8.408,0,0,0-8.411,8.411v12.542a8.465,8.465,0,0,0,7.894,8.411v8.263a1.839,1.839,0,0,0,1.107,1.622,1.247,1.247,0,0,0,.737.223,2.189,2.189,0,0,0,1.254-.592l9.665-9.516h21.4a8.409,8.409,0,0,0,8.41-8.411V608.949a8.409,8.409,0,0,0-8.41-8.411Z" transform="translate(284 -424)" fill="none" stroke="#33498b" stroke-width="1" fill-rule="evenodd"/>
      <path id="Path_31046" data-name="Path 31046" d="M398.1,614.149h-3.465v3.466a1.191,1.191,0,0,1-2.381,0v-3.466h-3.465a1.169,1.169,0,0,1,0-2.339h3.465V608.3a1.191,1.191,0,0,1,2.381,0v3.507H398.1a1.169,1.169,0,1,1,0,2.339Z" transform="translate(284.16 -421.809)" fill="#33498b" fill-rule="evenodd"/>
    </g>
  </g>
</svg>
