<svg id="noun_filters_220951" xmlns="http://www.w3.org/2000/svg" width="15.346" height="15.212" viewBox="0 0 15.346 15.212">
  <g id="Group" transform="translate(0 0)">
    <path id="Shape" d="M5.569,2.617H.459a.471.471,0,0,1,0-.941h5.11a2.079,2.079,0,0,1,4.08,0h5.238a.486.486,0,0,1,.459.471.461.461,0,0,1-.459.471H9.649a2.08,2.08,0,0,1-4.08,0Z" transform="translate(0 5.441)" fill="#222"/>
    <path id="Shape-2" data-name="Shape" d="M0,2.147A2.132,2.132,0,0,1,2.1,0a2.1,2.1,0,0,1,2.04,1.676H14.85a.471.471,0,0,1,0,.941H4.135A2.1,2.1,0,0,1,2.1,4.292,2.132,2.132,0,0,1,0,2.147Z" transform="translate(0.018)" fill="#222"/>
    <path id="Shape-3" data-name="Shape" d="M11.193,2.6H.459a.471.471,0,0,1,0-.941H11.193a2.091,2.091,0,0,1,4.135.49,2.087,2.087,0,0,1-4.135.452Z" transform="translate(0 10.92)" fill="#222"/>
  </g>
</svg>
