<svg xmlns="http://www.w3.org/2000/svg" xmlns:xlink="http://www.w3.org/1999/xlink" width="114" height="91" viewBox="0 0 114 91">
  <defs>
    <filter id="Rectangle_4238" x="0" y="0" width="114" height="91" filterUnits="userSpaceOnUse">
      <feOffset dy="3" input="SourceAlpha"/>
      <feGaussianBlur stdDeviation="3" result="blur"/>
      <feFlood flood-opacity="0.161"/>
      <feComposite operator="in" in2="blur"/>
      <feComposite in="SourceGraphic"/>
    </filter>
  </defs>
  <g id="Group_15434" data-name="Group 15434" transform="translate(-7322 -641)">
    <g id="Group_15433" data-name="Group 15433" transform="translate(3513 -1343)">
      <g transform="matrix(1, 0, 0, 1, 3809, 1984)" filter="url(#Rectangle_4238)">
        <rect id="Rectangle_4238-2" data-name="Rectangle 4238" width="96" height="73" rx="36.5" transform="translate(9 6)" fill="#fff"/>
      </g>
    </g>
    <g id="Group_15432" data-name="Group 15432" transform="translate(7265.178 580.352)">
      <path id="Path_53542" data-name="Path 53542" d="M131.163,94.977,118.417,82.231a.969.969,0,0,0-.686-.284h-5.458a6.3,6.3,0,0,0-5.278-2.842h-.006a6.3,6.3,0,0,0-5.259,2.842H96.824a.97.97,0,0,0-.97.97v43.072a.97.97,0,0,0,.97.97h33.652a.97.97,0,0,0,.97-.97V95.663A.969.969,0,0,0,131.163,94.977ZM118.7,85.259l9.433,9.434H118.7Zm-11.711-4.214h0a4.336,4.336,0,0,1,2.633.9H104.34A4.373,4.373,0,0,1,106.991,81.045Zm-9.2,43.973V83.887h13.292a4.37,4.37,0,0,1,.29,1.536l.012,13.43a2.541,2.541,0,0,1-2.535,2.54h0a2.543,2.543,0,0,1-2.539-2.537L106.3,87.58a.812.812,0,1,1,1.624,0l.011,10.316a.971.971,0,0,0,.97.969h0a.97.97,0,0,0,.97-.971l-.011-10.315a2.753,2.753,0,1,0-5.505,0l.012,11.277a4.485,4.485,0,0,0,4.481,4.475h0a4.485,4.485,0,0,0,4.475-4.483l-.013-13.43a6.342,6.342,0,0,0-.2-1.534h3.64V95.663a.97.97,0,0,0,.97.97h11.776v28.385Z" transform="translate(0 0)" fill="#33498b"/>
      <path id="Path_53543" data-name="Path 53543" d="M136.994,167.7H114.382a.97.97,0,1,0,0,1.94h22.612a.97.97,0,1,0,0-1.94Z" transform="translate(-12.038 -60.743)" fill="#33498b"/>
      <path id="Path_53544" data-name="Path 53544" d="M136.994,185.885H114.382a.97.97,0,1,0,0,1.94h22.612a.97.97,0,1,0,0-1.94Z" transform="translate(-12.038 -73.208)" fill="#33498b"/>
      <path id="Path_53545" data-name="Path 53545" d="M136.994,204.067H114.382a.97.97,0,1,0,0,1.94h22.612a.97.97,0,1,0,0-1.94Z" transform="translate(-12.038 -85.674)" fill="#33498b"/>
    </g>
  </g>
</svg>
