<svg xmlns="http://www.w3.org/2000/svg" xmlns:xlink="http://www.w3.org/1999/xlink" width="114" height="91" viewBox="0 0 114 91">
  <defs>
    <filter id="Rectangle_4238" x="0" y="0" width="114" height="91" filterUnits="userSpaceOnUse">
      <feOffset dy="3" input="SourceAlpha"/>
      <feGaussianBlur stdDeviation="3" result="blur"/>
      <feFlood flood-opacity="0.161"/>
      <feComposite operator="in" in2="blur"/>
      <feComposite in="SourceGraphic"/>
    </filter>
  </defs>
  <g id="Group_15242" data-name="Group 15242" transform="translate(-3809 -1984)">
    <g transform="matrix(1, 0, 0, 1, 3809, 1984)" filter="url(#Rectangle_4238)">
      <rect id="Rectangle_4238-2" data-name="Rectangle 4238" width="96" height="73" rx="36.5" transform="translate(9 6)" fill="#fff"/>
    </g>
    <g id="Group_15235" data-name="Group 15235" transform="translate(149 82.899)">
      <g id="Rectangle_4239" data-name="Rectangle 4239" transform="translate(3702 1925.101)" fill="#fff" stroke="#33498b" stroke-width="1">
        <rect width="12" height="11" stroke="none"/>
        <rect x="0.5" y="0.5" width="11" height="10" fill="none"/>
      </g>
      <g id="Rectangle_4240" data-name="Rectangle 4240" transform="translate(3702 1939.101)" fill="#fff" stroke="#33498b" stroke-width="1">
        <rect width="12" height="11" stroke="none"/>
        <rect x="0.5" y="0.5" width="11" height="10" fill="none"/>
      </g>
      <g id="Rectangle_4241" data-name="Rectangle 4241" transform="translate(3702 1953.101)" fill="#fff" stroke="#33498b" stroke-width="1">
        <rect width="12" height="11" stroke="none"/>
        <rect x="0.5" y="0.5" width="11" height="10" fill="none"/>
      </g>
      <g id="Group_15232" data-name="Group 15232" transform="matrix(0.985, 0.174, -0.174, 0.985, 3723.075, 1923.892)">
        <path id="Path_30467" data-name="Path 30467" d="M8.225,0a5.384,5.384,0,0,0-.834.081,2.532,2.532,0,0,0-.729.2A3.276,3.276,0,0,0,6,.864,12.786,12.786,0,0,0,4.884,2.3c-.445.642-.839,1.267-1.169,1.858-.3.529-.6,1.109-.9,1.728a3.054,3.054,0,0,0-.661-.639,1.479,1.479,0,0,0-.825-.3,1.463,1.463,0,0,0-.854.341,1.006,1.006,0,0,0-.478.8,1.278,1.278,0,0,0,.419.787A9.916,9.916,0,0,1,1.4,8.114a5.285,5.285,0,0,0,.379.537.784.784,0,0,0,.319.21,2.027,2.027,0,0,0,.621.066,1.893,1.893,0,0,0,.845-.132.966.966,0,0,0,.382-.376,8.837,8.837,0,0,0,.392-.884A21.772,21.772,0,0,1,6.169,4.026,14.139,14.139,0,0,1,8.378,1.238,2.024,2.024,0,0,0,8.711.885.589.589,0,0,0,8.8.561a.546.546,0,0,0-.161-.4A.551.551,0,0,0,8.225,0Z" transform="translate(0 0)" fill="#33498b"/>
      </g>
      <g id="Group_15233" data-name="Group 15233" transform="matrix(0.985, 0.174, -0.174, 0.985, 3723.075, 1939.589)">
        <path id="Path_30467-2" data-name="Path 30467" d="M8.225,0a5.384,5.384,0,0,0-.834.081,2.532,2.532,0,0,0-.729.2A3.276,3.276,0,0,0,6,.864,12.786,12.786,0,0,0,4.884,2.3c-.445.642-.839,1.267-1.169,1.858-.3.529-.6,1.109-.9,1.728a3.054,3.054,0,0,0-.661-.639,1.479,1.479,0,0,0-.825-.3,1.463,1.463,0,0,0-.854.341,1.006,1.006,0,0,0-.478.8,1.278,1.278,0,0,0,.419.787A9.916,9.916,0,0,1,1.4,8.114a5.285,5.285,0,0,0,.379.537.784.784,0,0,0,.319.21,2.027,2.027,0,0,0,.621.066,1.893,1.893,0,0,0,.845-.132.966.966,0,0,0,.382-.376,8.837,8.837,0,0,0,.392-.884A21.772,21.772,0,0,1,6.169,4.026,14.139,14.139,0,0,1,8.378,1.238,2.024,2.024,0,0,0,8.711.885.589.589,0,0,0,8.8.561a.546.546,0,0,0-.161-.4A.551.551,0,0,0,8.225,0Z" transform="translate(0 0)" fill="#33498b"/>
      </g>
      <g id="Group_15234" data-name="Group 15234" transform="matrix(0.985, 0.174, -0.174, 0.985, 3723.075, 1953.542)">
        <path id="Path_30467-3" data-name="Path 30467" d="M8.225,0a5.384,5.384,0,0,0-.834.081,2.532,2.532,0,0,0-.729.2A3.276,3.276,0,0,0,6,.864,12.786,12.786,0,0,0,4.884,2.3c-.445.642-.839,1.267-1.169,1.858-.3.529-.6,1.109-.9,1.728a3.054,3.054,0,0,0-.661-.639,1.479,1.479,0,0,0-.825-.3,1.463,1.463,0,0,0-.854.341,1.006,1.006,0,0,0-.478.8,1.278,1.278,0,0,0,.419.787A9.916,9.916,0,0,1,1.4,8.114a5.285,5.285,0,0,0,.379.537.784.784,0,0,0,.319.21,2.027,2.027,0,0,0,.621.066,1.893,1.893,0,0,0,.845-.132.966.966,0,0,0,.382-.376,8.837,8.837,0,0,0,.392-.884A21.772,21.772,0,0,1,6.169,4.026,14.139,14.139,0,0,1,8.378,1.238,2.024,2.024,0,0,0,8.711.885.589.589,0,0,0,8.8.561a.546.546,0,0,0-.161-.4A.551.551,0,0,0,8.225,0Z" transform="translate(0 0)" fill="#33498b"/>
      </g>
    </g>
  </g>
</svg>
