<svg xmlns="http://www.w3.org/2000/svg" width="32.338" height="38.991" viewBox="0 0 32.338 38.991">
  <g id="Group_57" data-name="Group 57" transform="translate(0 0)">
    <path id="Path_342" data-name="Path 342" d="M224.839,283.826q-1.7,1.746-3.447,3.446a1.808,1.808,0,0,1-2.75-.023c-.543-.516-1.069-1.049-1.584-1.588a1.852,1.852,0,0,1-.148-2.684,1.9,1.9,0,0,1,2.7.108c.121.105.237.217.479.439.762-.787,1.467-1.549,2.209-2.278a1.774,1.774,0,0,1,2.672-.109A1.846,1.846,0,0,1,224.839,283.826Z" transform="translate(-210.709 -267.86)" fill="#33498b"/>
    <path id="Path_343" data-name="Path 343" d="M224.839,315.826q-1.7,1.746-3.447,3.446a1.808,1.808,0,0,1-2.75-.023c-.543-.516-1.069-1.049-1.584-1.588a1.852,1.852,0,0,1-.148-2.684,1.9,1.9,0,0,1,2.7.108c.121.105.237.216.479.439.762-.787,1.467-1.549,2.209-2.278a1.774,1.774,0,0,1,2.672-.109A1.846,1.846,0,0,1,224.839,315.826Z" transform="translate(-210.709 -289.771)" fill="#33498b"/>
    <path id="Path_344" data-name="Path 344" d="M230.365,247.8a10.842,10.842,0,0,0-.032-1.126,3.44,3.44,0,0,0-2.238-2.944,3.538,3.538,0,0,0-1.155-.213c-.087,0-.175,0-.265,0s-.168,0-.252,0c-1.119-.013-2.242,0-3.364,0-.21,0-.421-.029-.673-.052a2.864,2.864,0,0,0-1.9-3.225H208.006l-.049.019a2.865,2.865,0,0,0-1.85,3.2c-.278.019-.508.055-.737.055-1.093.006-2.19-.01-3.283,0-.084,0-.168,0-.252,0-.12,0-.239,0-.359,0a3.527,3.527,0,0,0-1.87.566l-.087.058a2.94,2.94,0,0,0-1.093,1.281c-.016.032-.032.068-.049.1s-.029.074-.045.113a3.627,3.627,0,0,0-.262,1.038l-.01.126c-.029.33-.026.663-.026,1q0,10.553,0,21.113v5.89a7.419,7.419,0,0,0,.22,2.077c.333,1.1,1.087,1.685,2.649,2.342h26.612c1.488-.628,2.242-1.194,2.591-2.206a6.844,6.844,0,0,0,.265-2.213v-6.719Q230.368,257.938,230.365,247.8Zm-20.909-4.276h9.533v3.157h-9.533Zm17.72,31.626c-.007.65-.214.835-.877.828-3.442-.019-6.884-.016-10.325-.016H212.5c-3.461,0-6.919,0-10.38.016-.683.007-.883-.188-.88-.88v-.01q.015-5.619.016-11.241,0-8.147-.013-16.293a2.027,2.027,0,0,1,.023-.33v-.006a.539.539,0,0,1,.5-.521h1.067a.078.078,0,0,1,.039,0c.825.006,1.656,0,2.507,0h.715c.01.078.016.155.019.226a6.734,6.734,0,0,0,.01.734,2.46,2.46,0,0,0,1.219,1.97c.052.029.1.058.155.081a1.612,1.612,0,0,0,.155.068c.071.029.142.052.217.074a1.827,1.827,0,0,0,.23.052c.078.016.158.026.239.036s.162.01.246.01q5.648.019,11.3,0h.026a2.433,2.433,0,0,0,2.471-2.29c.026-.281,0-.569,0-.961h.663c.851,0,1.682.01,2.51,0a.091.091,0,0,1,.042,0h1.051c.424.065.524.343.524.857q-.01,6.317-.013,12.632v3.6q0,1.223,0,2.442,0,2,0,4,0,2.436.01,4.868Z" transform="translate(-198.03 -240.23)" fill="#33498b"/>
    <path id="Path_345" data-name="Path 345" d="M260.89,302.338a1.755,1.755,0,0,1-1.914,1.86c-.93.007-1.856.011-2.786.011-2.035.007-4.069,0-6.1-.011a1.79,1.79,0,0,1-1.951-1.834,1.7,1.7,0,0,1,1.378-1.677,2.651,2.651,0,0,1,.554-.066c1.5-.018,3-.007,4.492-.007,1.466,0,2.928-.011,4.394,0C260.171,300.635,260.864,301.266,260.89,302.338Z" transform="translate(-233.981 -281.3)" fill="#33498b"/>
    <path id="Path_346" data-name="Path 346" d="M259.074,322.839a1.838,1.838,0,0,1-1.885,1.787q-.115.011-.23.011c-1.138.011-2.279,0-3.413,0s-2.279.015-3.416,0a1.775,1.775,0,0,1-1.991-1.79,1.814,1.814,0,0,1,2.038-1.852q3.024-.022,6.053,0c.259,0,.518,0,.777,0A1.869,1.869,0,0,1,259.074,322.839Z" transform="translate(-232.813 -295.161)" fill="#33498b"/>
    <path id="Path_347" data-name="Path 347" d="M255.4,282.157a1.727,1.727,0,0,1-1.717,1.856c-.244.018-.485.025-.729.025-.16,0-.321,0-.481-.007-.036,0-.073,0-.106,0-.128,0-.248,0-.376,0-.04,0-.084,0-.128,0h-.131c-.095,0-.19,0-.284,0-.142,0-.284,0-.427.007-.263.007-.521.007-.784,0-.117,0-.237-.011-.357-.018a1.79,1.79,0,0,1-1.739-1.856,1.766,1.766,0,0,1,1.736-1.761c1.265-.058,2.538-.055,3.8,0A1.741,1.741,0,0,1,255.4,282.157Z" transform="translate(-232.442 -267.526)" fill="#33498b"/>
  </g>
</svg>
