<svg xmlns="http://www.w3.org/2000/svg" xmlns:xlink="http://www.w3.org/1999/xlink" width="114" height="91" viewBox="0 0 114 91">
  <defs>
    <filter id="Rectangle_4236" x="0" y="0" width="114" height="91" filterUnits="userSpaceOnUse">
      <feOffset dy="3" input="SourceAlpha"/>
      <feGaussianBlur stdDeviation="3" result="blur"/>
      <feFlood flood-opacity="0.161"/>
      <feComposite operator="in" in2="blur"/>
      <feComposite in="SourceGraphic"/>
    </filter>
  </defs>
  <g id="Group_15243" data-name="Group 15243" transform="translate(-3667 -1986)">
    <g transform="matrix(1, 0, 0, 1, 3667, 1986)" filter="url(#Rectangle_4236)">
      <rect id="Rectangle_4236-2" data-name="Rectangle 4236" width="96" height="73" rx="36.5" transform="translate(9 6)" fill="#fff"/>
    </g>
    <g id="Group_15237" data-name="Group 15237" transform="translate(0 4)">
      <g id="Group_15236" data-name="Group 15236" transform="translate(3 -2)">
        <g id="Rectangle_4237" data-name="Rectangle 4237" transform="translate(3705 2019)" fill="#fff" stroke="#33498b" stroke-width="1">
          <rect width="32" height="29" stroke="none"/>
          <rect x="0.5" y="0.5" width="31" height="28" fill="none"/>
        </g>
        <g id="Rectangle_4244" data-name="Rectangle 4244" transform="translate(3705 2008)" fill="none" stroke="#33498b" stroke-width="1">
          <rect width="32" height="7" stroke="none"/>
          <rect x="0.5" y="0.5" width="31" height="6" fill="none"/>
        </g>
        <rect id="Rectangle_4245" data-name="Rectangle 4245" width="13" height="1" transform="translate(3714 2025)" fill="#33498b"/>
        <rect id="Rectangle_4254" data-name="Rectangle 4254" width="13" height="1" transform="translate(3709 2011)" fill="#33498b"/>
        <rect id="Rectangle_4246" data-name="Rectangle 4246" width="13" height="1" transform="translate(3714 2029)" fill="#33498b"/>
        <rect id="Rectangle_4247" data-name="Rectangle 4247" width="13" height="1" transform="translate(3714 2034)" fill="#33498b"/>
        <rect id="Rectangle_4248" data-name="Rectangle 4248" width="13" height="1" transform="translate(3714 2038)" fill="#33498b"/>
        <rect id="Rectangle_4249" data-name="Rectangle 4249" width="13" height="1" transform="translate(3714 2042)" fill="#33498b"/>
      </g>
      <path id="shape" d="M.631,0,2.675,1.913,4.718,0l.631.588L2.675,3.079,0,.588Z" transform="matrix(1, -0.017, 0.017, 1, 3733.062, 2007.981)" fill="#33498b"/>
    </g>
  </g>
</svg>
