<svg xmlns="http://www.w3.org/2000/svg" xmlns:xlink="http://www.w3.org/1999/xlink" width="114" height="91" viewBox="0 0 114 91">
  <defs>
    <filter id="Rectangle_4256" x="0" y="0" width="114" height="91" filterUnits="userSpaceOnUse">
      <feOffset dy="3" input="SourceAlpha"/>
      <feGaussianBlur stdDeviation="3" result="blur"/>
      <feFlood flood-opacity="0.161"/>
      <feComposite operator="in" in2="blur"/>
      <feComposite in="SourceGraphic"/>
    </filter>
  </defs>
  <g id="Group_15240" data-name="Group 15240" transform="translate(-4118 -1983)">
    <g transform="matrix(1, 0, 0, 1, 4118, 1983)" filter="url(#Rectangle_4256)">
      <rect id="Rectangle_4256-2" data-name="Rectangle 4256" width="96" height="73" rx="36.5" transform="translate(9 6)" fill="#fff"/>
    </g>
    <g id="Group_15239" data-name="Group 15239" transform="translate(18 -116)">
      <g id="Rectangle_4255" data-name="Rectangle 4255" transform="translate(4127 2126)" fill="none" stroke="#33498b" stroke-width="0.5">
        <rect width="61" height="31" stroke="none"/>
        <rect x="0.25" y="0.25" width="60.5" height="30.5" fill="none"/>
      </g>
      <g id="Rectangle_4257" data-name="Rectangle 4257" transform="translate(4140 2126)" fill="#fff" stroke="#33498b" stroke-width="0.5">
        <rect width="1" height="31" stroke="none"/>
        <rect x="0.25" y="0.25" width="0.5" height="30.5" fill="none"/>
      </g>
      <g id="Rectangle_4258" data-name="Rectangle 4258" transform="translate(4151 2126)" fill="#fff" stroke="#33498b" stroke-width="0.5">
        <rect width="1" height="31" stroke="none"/>
        <rect x="0.25" y="0.25" width="0.5" height="30.5" fill="none"/>
      </g>
      <g id="Rectangle_4259" data-name="Rectangle 4259" transform="translate(4163 2126)" fill="#fff" stroke="#33498b" stroke-width="0.5">
        <rect width="1" height="31" stroke="none"/>
        <rect x="0.25" y="0.25" width="0.5" height="30.5" fill="none"/>
      </g>
      <g id="Rectangle_4260" data-name="Rectangle 4260" transform="translate(4175 2126)" fill="#fff" stroke="#33498b" stroke-width="0.5">
        <rect width="1" height="31" stroke="none"/>
        <rect x="0.25" y="0.25" width="0.5" height="30.5" fill="none"/>
      </g>
      <g id="Rectangle_4261" data-name="Rectangle 4261" transform="translate(4127 2132)" fill="none" stroke="#33498b" stroke-width="0.5">
        <rect width="61" height="1" stroke="none"/>
        <rect x="0.25" y="0.25" width="60.5" height="0.5" fill="none"/>
      </g>
      <g id="Rectangle_4262" data-name="Rectangle 4262" transform="translate(4127 2138)" fill="none" stroke="#33498b" stroke-width="0.5">
        <rect width="61" height="1" stroke="none"/>
        <rect x="0.25" y="0.25" width="60.5" height="0.5" fill="none"/>
      </g>
      <g id="Rectangle_4263" data-name="Rectangle 4263" transform="translate(4127 2144)" fill="none" stroke="#33498b" stroke-width="0.5">
        <rect width="61" height="1" stroke="none"/>
        <rect x="0.25" y="0.25" width="60.5" height="0.5" fill="none"/>
      </g>
      <g id="Rectangle_4264" data-name="Rectangle 4264" transform="translate(4127 2150)" fill="none" stroke="#33498b" stroke-width="0.5">
        <rect width="61" height="1" stroke="none"/>
        <rect x="0.25" y="0.25" width="60.5" height="0.5" fill="none"/>
      </g>
      <rect id="Rectangle_4265" data-name="Rectangle 4265" width="61" height="1" transform="translate(4127 2156)" fill="#33498b"/>
    </g>
  </g>
</svg>
