<svg xmlns="http://www.w3.org/2000/svg" xmlns:xlink="http://www.w3.org/1999/xlink" width="114" height="91" viewBox="0 0 114 91">
  <defs>
    <filter id="Rectangle_4256" x="0" y="0" width="114" height="91" filterUnits="userSpaceOnUse">
      <feOffset dy="3" input="SourceAlpha"/>
      <feGaussianBlur stdDeviation="3" result="blur"/>
      <feFlood flood-opacity="0.161"/>
      <feComposite operator="in" in2="blur"/>
      <feComposite in="SourceGraphic"/>
    </filter>
  </defs>
  <g id="Group_15467" data-name="Group 15467" transform="translate(-7586 -252)">
    <g id="Group_15465" data-name="Group 15465" transform="translate(293 -382)">
      <g id="Group_15460" data-name="Group 15460" transform="translate(3175 -1349)">
        <g transform="matrix(1, 0, 0, 1, 4118, 1983)" filter="url(#Rectangle_4256)">
          <rect id="Rectangle_4256-2" data-name="Rectangle 4256" width="96" height="73" rx="36.5" transform="translate(9 6)" fill="#fff"/>
        </g>
      </g>
    </g>
    <g id="Group_15466" data-name="Group 15466" transform="translate(15058.907 1086.85) rotate(-180)">
      <g id="Ellipse_30" data-name="Ellipse 30" transform="translate(7391.408 779.351)" fill="#fff" stroke="#33498b" stroke-width="1">
        <circle cx="10" cy="10" r="10" stroke="none"/>
        <circle cx="10" cy="10" r="9.5" fill="none"/>
      </g>
      <g id="Path_48102" data-name="Path 48102" transform="translate(7421.04 779.982)" fill="none">
        <path d="M9.684,0A9.684,9.684,0,1,1,0,9.684,9.684,9.684,0,0,1,9.684,0Z" stroke="none"/>
        <path d="M 9.68393611907959 0.9999961853027344 C 4.895596504211426 0.9999961853027344 0.9999961853027344 4.895596504211426 0.9999961853027344 9.68393611907959 C 0.9999961853027344 14.47227668762207 4.895596504211426 18.36787605285645 9.68393611907959 18.36787605285645 C 14.47227668762207 18.36787605285645 18.36787605285645 14.47227668762207 18.36787605285645 9.68393611907959 C 18.36787605285645 4.895596504211426 14.47227668762207 0.9999961853027344 9.68393611907959 0.9999961853027344 M 9.68393611907959 -3.814697265625e-06 C 15.0322265625 -3.814697265625e-06 19.36787605285645 4.33564567565918 19.36787605285645 9.68393611907959 C 19.36787605285645 15.0322265625 15.0322265625 19.36787605285645 9.68393611907959 19.36787605285645 C 4.33564567565918 19.36787605285645 -3.814697265625e-06 15.0322265625 -3.814697265625e-06 9.68393611907959 C -3.814697265625e-06 4.33564567565918 4.33564567565918 -3.814697265625e-06 9.68393611907959 -3.814697265625e-06 Z" stroke="none" fill="#33498b"/>
      </g>
      <circle id="Ellipse_31" data-name="Ellipse 31" cx="5" cy="5" r="5" transform="translate(7396.408 784.351)" fill="#33498b"/>
      <path id="Path_48103" data-name="Path 48103" d="M9.684,0a9.819,9.819,0,0,1,7.279,3.3,9.46,9.46,0,0,1,2.405,6.387A9.684,9.684,0,1,1,9.684,0Z" transform="translate(7421.04 779.982)" fill="#fff" opacity="0.12"/>
    </g>
  </g>
</svg>
