<svg xmlns="http://www.w3.org/2000/svg" xmlns:xlink="http://www.w3.org/1999/xlink" width="114" height="91" viewBox="0 0 114 91">
  <defs>
    <filter id="Rectangle_4256" x="0" y="0" width="114" height="91" filterUnits="userSpaceOnUse">
      <feOffset dy="3" input="SourceAlpha"/>
      <feGaussianBlur stdDeviation="3" result="blur"/>
      <feFlood flood-opacity="0.161"/>
      <feComposite operator="in" in2="blur"/>
      <feComposite in="SourceGraphic"/>
    </filter>
  </defs>
  <g id="Group_15462" data-name="Group 15462" transform="translate(-7176 -639)">
    <g id="Group_15350" data-name="Group 15350" transform="translate(3058 -1344)">
      <g transform="matrix(1, 0, 0, 1, 4118, 1983)" filter="url(#Rectangle_4256)">
        <rect id="Rectangle_4256-2" data-name="Rectangle 4256" width="96" height="73" rx="36.5" transform="translate(9 6)" fill="#fff"/>
      </g>
    </g>
    <g id="Group_15459" data-name="Group 15459" transform="translate(6018 -63)">
      <g id="Group_3455" data-name="Group 3455" transform="translate(846.701 8.964)">
        <path id="Path_5928" data-name="Path 5928" d="M372.409,752.734l-3.5-2.576-3.5,2.576a.408.408,0,1,1-.577-.577l3.658-2.766v-2.734a.408.408,0,0,1,.815,0v2.721l3.674,2.779a.407.407,0,0,1-.575.577Z" transform="translate(0 -11)" fill="#33498b"/>
        <path id="Path_5929" data-name="Path 5929" d="M354.241,735.378a4.927,4.927,0,0,0,3.485,8.412h0a4.929,4.929,0,1,0-3.486-8.412Zm7.11,3.482a3.629,3.629,0,0,1-3.624,3.626h0a3.625,3.625,0,1,1,3.625-3.626Z" fill="#33498b"/>
        <path id="Path_5930" data-name="Path 5930" d="M352.133,751.336h0l11.185,0a.652.652,0,0,0,.651-.631c.006-.176.112-4.338-2.505-6.735a.651.651,0,0,0-.838-.036c-.029.022-2.924,2.2-5.615,0a.653.653,0,0,0-.84.014,9.3,9.3,0,0,0-2.69,6.725.652.652,0,0,0,.652.661Zm2.539-6.03a5.844,5.844,0,0,0,6.266-.014,8.261,8.261,0,0,1,1.708,4.737l-9.83,0A8.252,8.252,0,0,1,354.672,745.306Z" fill="#33498b"/>
        <path id="Path_5931" data-name="Path 5931" d="M379.792,743.79h0a4.927,4.927,0,1,0-4.93-4.927A4.9,4.9,0,0,0,379.793,743.79Zm-2.562-7.49a3.623,3.623,0,1,1,2.563,6.186h0a3.623,3.623,0,0,1-2.562-6.186Z" fill="#33498b"/>
        <path id="Path_5932" data-name="Path 5932" d="M386.035,750.7c.006-.176.112-4.338-2.505-6.735a.651.651,0,0,0-.838-.036c-.029.022-2.924,2.2-5.615,0a.653.653,0,0,0-.84.014,9.294,9.294,0,0,0-2.689,6.725.65.65,0,0,0,.652.661h0l11.184,0A.652.652,0,0,0,386.035,750.7Zm-11.152-.671a8.231,8.231,0,0,1,1.856-4.726,5.842,5.842,0,0,0,6.265-.014,8.262,8.262,0,0,1,1.708,4.737Z" fill="#33498b"/>
        <path id="Path_5933" data-name="Path 5933" d="M368.911,754.259a4.929,4.929,0,1,0,0,9.858h0a4.929,4.929,0,0,0,0-9.858Zm2.562,7.49a3.6,3.6,0,0,1-2.561,1.064h0a3.631,3.631,0,1,1,2.562-1.064Z" transform="translate(0 -39)" fill="#33498b"/>
        <path id="Path_5934" data-name="Path 5934" d="M363.318,771.663h0l11.184,0a.652.652,0,0,0,.652-.631c.006-.176.112-4.338-2.506-6.736a.653.653,0,0,0-.838-.036c-.028.022-2.923,2.2-5.614.006a.653.653,0,0,0-.84.013A9.3,9.3,0,0,0,362.665,771a.652.652,0,0,0,.653.661Zm2.539-6.03a5.844,5.844,0,0,0,6.266-.014,8.266,8.266,0,0,1,1.708,4.737l-9.83,0A8.237,8.237,0,0,1,365.857,765.633Z" transform="translate(0 -39)" fill="#33498b"/>
      </g>
    </g>
  </g>
</svg>
