<svg xmlns="http://www.w3.org/2000/svg" xmlns:xlink="http://www.w3.org/1999/xlink" width="114" height="91"
     viewBox="0 0 114 91">
  <defs>
    <filter id="Rectangle_4256" x="0" y="0" width="114" height="91" filterUnits="userSpaceOnUse">
      <feOffset dy="3" input="SourceAlpha"/>
      <feGaussianBlur stdDeviation="3" result="blur"/>
      <feFlood flood-opacity="0.161"/>
      <feComposite operator="in" in2="blur"/>
      <feComposite in="SourceGraphic"/>
    </filter>
  </defs>
  <g id="Group_15457" data-name="Group 15457" transform="translate(-7127 -637)">
    <g id="Group_15455" data-name="Group 15455" transform="translate(6392 463)">
      <g id="Group_15350" data-name="Group 15350" transform="translate(-3383 -1809)">
        <g transform="matrix(1, 0, 0, 1, 4118, 1983)" filter="url(#Rectangle_4256)">
          <rect id="Rectangle_4256-2" data-name="Rectangle 4256" width="96" height="73" rx="36.5"
                transform="translate(9 6)" fill="#fff"/>
        </g>
      </g>
    </g>
    <g id="Group_15456" data-name="Group 15456" transform="translate(6559.701 -266.197)">
      <path id="Path_6336" data-name="Path 6336"
            d="M613.379,954.266l2.867-5.858,5.715.016,2.86,5.843a2.234,2.234,0,0,0,1.908,1.329,1.52,1.52,0,0,0,.669-.153,1.671,1.671,0,0,0,.878-1.2,2.464,2.464,0,0,0-.226-1.557l-7.074-14.449a2.441,2.441,0,0,0-1.118-1.144l-.056-.031a1.5,1.5,0,0,0-.634-.153h-.114a1.522,1.522,0,0,0-.655.154.435.435,0,0,0-.053.029,2.442,2.442,0,0,0-1.123,1.147l-7.075,14.449a2.47,2.47,0,0,0-.225,1.557,1.673,1.673,0,0,0,.877,1.2A2.027,2.027,0,0,0,613.379,954.266Zm-2.445-.227a1.453,1.453,0,0,1,.141-.9l7.075-14.449a1.417,1.417,0,0,1,.661-.679l.031-.016.036-.02a.522.522,0,0,1,.2-.037h.059a.541.541,0,0,1,.185.034l.073.039a1.417,1.417,0,0,1,.662.679l7.075,14.449a1.459,1.459,0,0,1,.141.9.664.664,0,0,1-.32.477c-.374.183-.924-.139-1.2-.7l-3.142-6.419-7-.018-3.151,6.437c-.277.563-.826.885-1.2.7A.664.664,0,0,1,610.933,954.039Z"
            fill="#32498b"/>
      <path id="Path_6337" data-name="Path 6337"
            d="M620.077,940.743l-2.784,5.688,5.576.016Zm0,2.343,1.138,2.325-2.273-.006Z"
            transform="translate(-0.977 -0.506)" fill="#32498b"/>
      <path id="Path_6338" data-name="Path 6338"
            d="M640.727,944.993h-.005a1.611,1.611,0,0,0-1.755,1.389,5.376,5.376,0,1,0,.294,9.667,1.89,1.89,0,0,0,1.435.615h.007a2,2,0,0,0,1.178-.365,1.33,1.33,0,0,0,.575-1.061l.024-8.809a1.283,1.283,0,0,0-.39-.908A1.93,1.93,0,0,0,640.727,944.993Zm.7,10.241a.343.343,0,0,1-.155.234.965.965,0,0,1-.572.166c-.391,0-.693-.2-.718-.381a.514.514,0,0,0-.3-.4.508.508,0,0,0-.21-.044.516.516,0,0,0-.286.087,4.347,4.347,0,1,1,.007-7.214.515.515,0,0,0,.8-.425l0-.834c0-.163.283-.4.725-.4h0a.928.928,0,0,1,.635.222.272.272,0,0,1,.09.181Z"
            transform="translate(-2.836 -1.066)" fill="#32498b"/>
      <path id="Path_6339" data-name="Path 6339"
            d="M637.091,948.535a3.219,3.219,0,1,0,3.22,3.219A3.222,3.222,0,0,0,637.091,948.535Zm0,5.408a2.189,2.189,0,1,1,2.189-2.189A2.191,2.191,0,0,1,637.091,953.943Z"
            transform="translate(-3.164 -1.533)" fill="#32498b"/>
    </g>
  </g>
</svg>
