<svg xmlns="http://www.w3.org/2000/svg" width="90.356" height="19.017" viewBox="0 0 90.356 19.017">
  <g id="Group_135630" data-name="Group 135630" transform="translate(-2587.726 -3919.785)">
    <g id="Group_135629" data-name="Group 135629" transform="translate(2587.726 3919.785)">
      <g id="Group_135628" data-name="Group 135628" transform="translate(0)">
        <path id="Path_1" data-name="Path 1" d="M97.985,23.1V33.323h-3.7l-5.569-6.449h-.073v6.449H85.6V23.1h3.737l5.5,6.339h.073V23.1Z" transform="translate(-54.235 -14.636)" fill="#d1d5e1"/>
        <g id="Group_1" data-name="Group 1" transform="translate(45.618 8.061)">
          <path id="Path_2" data-name="Path 2" d="M133.77,25.554a2.737,2.737,0,0,0-.953-.66,3.682,3.682,0,0,0-1.5-.256,3.637,3.637,0,0,0-2.455.733,2.758,2.758,0,0,0-.843,2.125,2.7,2.7,0,0,0,.843,2.125,3.515,3.515,0,0,0,2.455.733,3.335,3.335,0,0,0,2.052-.55,1.879,1.879,0,0,0,.769-1.429h3.847a3.958,3.958,0,0,1-1.759,3.371,8.754,8.754,0,0,1-4.91,1.173,8.069,8.069,0,0,1-5.056-1.356,4.872,4.872,0,0,1-1.759-4.1,4.872,4.872,0,0,1,1.759-4.1A8.069,8.069,0,0,1,131.315,22a8.637,8.637,0,0,1,4.873,1.136,3.734,3.734,0,0,1,1.759,3.188h-3.811a1.631,1.631,0,0,0-.366-.769" transform="translate(-124.5 -22)" fill="#d1d5e1"/>
        </g>
        <path id="Path_3" data-name="Path 3" d="M181.486,33.323h-3.224V26.068h-.073l-3,7.255h-2.492l-3.078-7.328h-.073v7.328H166.5V23.1h5.02l2.382,6.119h.11l2.345-6.119h5.13Z" transform="translate(-105.493 -14.636)" fill="#d1d5e1"/>
        <g id="Group_2" data-name="Group 2" transform="translate(77.532 8.098)">
          <path id="Path_4" data-name="Path 4" d="M219.661,24.592a4.764,4.764,0,0,0-1.832-.293,4.874,4.874,0,0,0-1.722.22.771.771,0,0,0-.513.7.6.6,0,0,0,.293.55,3.722,3.722,0,0,0,1.026.256l3.994.33a4.588,4.588,0,0,1,2.638.916,2.794,2.794,0,0,1,.879,2.235,3.085,3.085,0,0,1-.733,2.162,4.16,4.16,0,0,1-2.125,1.063,18.843,18.843,0,0,1-3.591.293,15.131,15.131,0,0,1-3.481-.33,4.131,4.131,0,0,1-2.089-1.136,3.64,3.64,0,0,1-.806-2.308h3.811a1.558,1.558,0,0,0,.806,1.209,4.593,4.593,0,0,0,1.979.33,4.922,4.922,0,0,0,1.905-.256.833.833,0,0,0,.586-.769.74.74,0,0,0-.33-.66,2.113,2.113,0,0,0-.953-.256l-3.847-.4a4.9,4.9,0,0,1-2.675-.879A2.542,2.542,0,0,1,212,25.4a2.641,2.641,0,0,1,1.539-2.565,11.051,11.051,0,0,1,4.507-.733,10.388,10.388,0,0,1,4.507.769,2.843,2.843,0,0,1,1.612,2.675h-3.7a1.322,1.322,0,0,0-.806-.953" transform="translate(-211.6 -22.1)" fill="#d1d5e1"/>
        </g>
        <path id="Path_5" data-name="Path 5" d="M25.9,24.8l6.229,4.8L25.9,34.4Z" transform="translate(-16.41 -15.713)" fill="#d1d5e1"/>
        <path id="Path_6" data-name="Path 6" d="M51.8,4.8l6.229,4.8L51.8,14.4Z" transform="translate(-32.82 -3.041)" fill="#d1d5e1"/>
        <path id="Path_7" data-name="Path 7" d="M0,24.7l6.229,4.8V19.9Z" transform="translate(0 -12.608)" fill="#d1d5e1"/>
        <path id="Path_8" data-name="Path 8" d="M32.129,0,25.9,4.8l6.229,4.8Z" transform="translate(-16.41)" fill="#d1d5e1"/>
      </g>
    </g>
  </g>
</svg>
